<svg xmlns="http://www.w3.org/2000/svg" viewBox="0 0 36 24">
  <defs>
    <path id="star" d="M0,-1 L0.2245,-0.309 L0.9511,-0.309 L0.3633,0.118 L0.5878,0.809 L0,0.382 L-0.5878,0.809 L-0.3633,0.118 L-0.9511,-0.309 L-0.2245,-0.309 Z" fill="#fff"/>
    <clipPath id="canton"><rect width="18" height="12"/></clipPath>
  </defs>
  <rect width="36" height="24" fill="#012169"/>
  <g clip-path="url(#canton)">
    <path d="M0,0 L18,12 M18,0 L0,12" stroke="#fff" stroke-width="2.4"/>
    <path d="M0,0 L18,12 M18,0 L0,12" stroke="#C8102E" stroke-width="1"/>
    <path d="M9,0 V12 M0,6 H18" stroke="#fff" stroke-width="4"/>
    <path d="M9,0 V12 M0,6 H18" stroke="#C8102E" stroke-width="2.4"/>
  </g>
  <use href="#star" transform="translate(9,18.5) scale(3.1)"/>
  <use href="#star" transform="translate(27,4) scale(1.7)"/>
  <use href="#star" transform="translate(27,20.5) scale(1.7)"/>
  <use href="#star" transform="translate(22.6,10.8) scale(1.7)"/>
  <use href="#star" transform="translate(31,9.5) scale(1.7)"/>
  <use href="#star" transform="translate(28.4,13.6) scale(1.1)"/>
</svg>
